<svg width="244" height="203" viewBox="0 0 244 203" fill="none" xmlns="http://www.w3.org/2000/svg">
<path d="M20.4124 62C20.1084 62 19.8604 61.912 19.6684 61.736C19.4924 61.56 19.4044 61.328 19.4044 61.04V46.04C19.4044 45.752 19.4924 45.52 19.6684 45.344C19.8604 45.168 20.1084 45.08 20.4124 45.08H29.3884C29.6764 45.08 29.9004 45.152 30.0604 45.296C30.2204 45.44 30.3004 45.64 30.3004 45.896C30.3004 46.152 30.2204 46.352 30.0604 46.496C29.9004 46.64 29.6764 46.712 29.3884 46.712H21.3484V52.592H28.9084C29.1964 52.592 29.4204 52.664 29.5804 52.808C29.7404 52.952 29.8204 53.152 29.8204 53.408C29.8204 53.664 29.7404 53.864 29.5804 54.008C29.4204 54.152 29.1964 54.224 28.9084 54.224H21.3484V60.368H29.3884C29.6764 60.368 29.9004 60.44 30.0604 60.584C30.2204 60.712 30.3004 60.912 30.3004 61.184C30.3004 61.44 30.2204 61.64 30.0604 61.784C29.9004 61.928 29.6764 62 29.3884 62H20.4124ZM42.1332 59.288C42.3092 59.288 42.4612 59.36 42.5892 59.504C42.7172 59.648 42.7812 59.832 42.7812 60.056C42.7812 60.456 42.5012 60.824 41.9412 61.16C41.3652 61.496 40.7572 61.752 40.1172 61.928C39.4772 62.088 38.8532 62.168 38.2452 62.168C36.4372 62.168 35.0052 61.632 33.9492 60.56C32.9092 59.488 32.3892 58.008 32.3892 56.12C32.3892 54.92 32.6212 53.864 33.0852 52.952C33.5492 52.024 34.1972 51.304 35.0292 50.792C35.8772 50.28 36.8372 50.024 37.9092 50.024C39.4292 50.024 40.6372 50.52 41.5332 51.512C42.4292 52.504 42.8772 53.848 42.8772 55.544C42.8772 55.864 42.8132 56.096 42.6852 56.24C42.5572 56.384 42.3492 56.456 42.0612 56.456H34.3332C34.4772 59.208 35.7812 60.584 38.2452 60.584C38.8692 60.584 39.4052 60.504 39.8532 60.344C40.3012 60.168 40.7812 59.936 41.2932 59.648C41.7092 59.408 41.9892 59.288 42.1332 59.288ZM37.9332 51.536C36.9092 51.536 36.0852 51.856 35.4612 52.496C34.8532 53.136 34.4932 54.04 34.3812 55.208H41.1732C41.1412 54.024 40.8452 53.12 40.2852 52.496C39.7252 51.856 38.9412 51.536 37.9332 51.536ZM51.6214 50.024C54.4214 50.024 55.8214 51.568 55.8214 54.656V61.16C55.8214 61.464 55.7334 61.704 55.5574 61.88C55.3974 62.04 55.1654 62.12 54.8614 62.12C54.5574 62.12 54.3174 62.04 54.1414 61.88C53.9654 61.704 53.8774 61.464 53.8774 61.16V54.776C53.8774 53.688 53.6614 52.896 53.2294 52.4C52.8134 51.904 52.1414 51.656 51.2134 51.656C50.1414 51.656 49.2854 51.984 48.6454 52.64C48.0054 53.296 47.6854 54.184 47.6854 55.304V61.16C47.6854 61.464 47.5974 61.704 47.4214 61.88C47.2614 62.04 47.0294 62.12 46.7254 62.12C46.4214 62.12 46.1814 62.04 46.0054 61.88C45.8294 61.704 45.7414 61.464 45.7414 61.16V51.032C45.7414 50.744 45.8294 50.512 46.0054 50.336C46.1814 50.16 46.4214 50.072 46.7254 50.072C47.0134 50.072 47.2374 50.16 47.3974 50.336C47.5734 50.512 47.6614 50.736 47.6614 51.008V52.232C48.0454 51.512 48.5814 50.968 49.2694 50.6C49.9574 50.216 50.7414 50.024 51.6214 50.024ZM72.39 50.024C74.982 50.024 76.278 51.568 76.278 54.656V61.16C76.278 61.464 76.19 61.704 76.014 61.88C75.838 62.04 75.606 62.12 75.318 62.12C75.03 62.12 74.79 62.04 74.598 61.88C74.422 61.704 74.334 61.464 74.334 61.16V54.704C74.334 53.632 74.142 52.856 73.758 52.376C73.374 51.896 72.774 51.656 71.958 51.656C70.982 51.656 70.214 51.984 69.654 52.64C69.094 53.296 68.814 54.184 68.814 55.304V61.16C68.814 61.464 68.718 61.704 68.526 61.88C68.35 62.04 68.118 62.12 67.83 62.12C67.542 62.12 67.31 62.04 67.134 61.88C66.958 61.704 66.87 61.464 66.87 61.16V54.704C66.87 53.632 66.678 52.856 66.294 52.376C65.91 51.896 65.302 51.656 64.47 51.656C63.51 51.656 62.742 51.984 62.166 52.64C61.606 53.296 61.326 54.184 61.326 55.304V61.16C61.326 61.464 61.238 61.704 61.062 61.88C60.886 62.04 60.654 62.12 60.366 62.12C60.078 62.12 59.838 62.04 59.646 61.88C59.47 61.704 59.382 61.464 59.382 61.16V51.032C59.382 50.744 59.47 50.512 59.646 50.336C59.838 50.16 60.078 50.072 60.366 50.072C60.638 50.072 60.862 50.16 61.038 50.336C61.214 50.496 61.302 50.72 61.302 51.008V52.16C61.654 51.472 62.142 50.944 62.766 50.576C63.39 50.208 64.11 50.024 64.926 50.024C66.75 50.024 67.942 50.792 68.502 52.328C68.838 51.624 69.35 51.064 70.038 50.648C70.726 50.232 71.51 50.024 72.39 50.024ZM84.5955 50.024C87.5235 50.024 88.9875 51.56 88.9875 54.632V61.16C88.9875 61.448 88.8995 61.68 88.7235 61.856C88.5635 62.032 88.3395 62.12 88.0515 62.12C87.7635 62.12 87.5315 62.032 87.3555 61.856C87.1795 61.68 87.0915 61.448 87.0915 61.16V60.008C86.7875 60.696 86.3235 61.232 85.6995 61.616C85.0755 61.984 84.3555 62.168 83.5395 62.168C82.7875 62.168 82.0915 62.016 81.4515 61.712C80.8275 61.408 80.3315 60.984 79.9635 60.44C79.5955 59.896 79.4115 59.296 79.4115 58.64C79.4115 57.76 79.6355 57.08 80.0835 56.6C80.5315 56.104 81.2675 55.752 82.2915 55.544C83.3155 55.32 84.7395 55.208 86.5635 55.208H87.0915V54.416C87.0915 53.456 86.8915 52.752 86.4915 52.304C86.1075 51.856 85.4755 51.632 84.5955 51.632C83.5075 51.632 82.4035 51.928 81.2835 52.52C80.8515 52.792 80.5475 52.928 80.3715 52.928C80.1795 52.928 80.0195 52.856 79.8915 52.712C79.7635 52.568 79.6995 52.384 79.6995 52.16C79.6995 51.936 79.7635 51.744 79.8915 51.584C80.0355 51.408 80.2595 51.232 80.5635 51.056C81.1235 50.736 81.7555 50.488 82.4595 50.312C83.1795 50.12 83.8915 50.024 84.5955 50.024ZM83.8035 60.632C84.7635 60.632 85.5475 60.312 86.1555 59.672C86.7795 59.016 87.0915 58.176 87.0915 57.152V56.456H86.6595C85.2515 56.456 84.1795 56.52 83.4435 56.648C82.7075 56.76 82.1795 56.96 81.8595 57.248C81.5555 57.52 81.4035 57.928 81.4035 58.472C81.4035 59.096 81.6275 59.616 82.0755 60.032C82.5395 60.432 83.1155 60.632 83.8035 60.632ZM97.3221 50.024C100.25 50.024 101.714 51.56 101.714 54.632V61.16C101.714 61.448 101.626 61.68 101.45 61.856C101.29 62.032 101.066 62.12 100.778 62.12C100.49 62.12 100.258 62.032 100.082 61.856C99.9061 61.68 99.8181 61.448 99.8181 61.16V60.008C99.5141 60.696 99.0501 61.232 98.4261 61.616C97.8021 61.984 97.0821 62.168 96.2661 62.168C95.5141 62.168 94.8181 62.016 94.1781 61.712C93.5541 61.408 93.0581 60.984 92.6901 60.44C92.3221 59.896 92.1381 59.296 92.1381 58.64C92.1381 57.76 92.3621 57.08 92.8101 56.6C93.2581 56.104 93.9941 55.752 95.0181 55.544C96.0421 55.32 97.4661 55.208 99.2901 55.208H99.8181V54.416C99.8181 53.456 99.6181 52.752 99.2181 52.304C98.8341 51.856 98.2021 51.632 97.3221 51.632C96.2341 51.632 95.1301 51.928 94.0101 52.52C93.5781 52.792 93.2741 52.928 93.0981 52.928C92.9061 52.928 92.7461 52.856 92.6181 52.712C92.4901 52.568 92.4261 52.384 92.4261 52.16C92.4261 51.936 92.4901 51.744 92.6181 51.584C92.7621 51.408 92.9861 51.232 93.2901 51.056C93.8501 50.736 94.4821 50.488 95.1861 50.312C95.9061 50.12 96.6181 50.024 97.3221 50.024ZM96.5301 60.632C97.4901 60.632 98.2741 60.312 98.8821 59.672C99.5061 59.016 99.8181 58.176 99.8181 57.152V56.456H99.3861C97.9781 56.456 96.9061 56.52 96.1701 56.648C95.4341 56.76 94.9061 56.96 94.5861 57.248C94.2821 57.52 94.1301 57.928 94.1301 58.472C94.1301 59.096 94.3541 59.616 94.8021 60.032C95.2661 60.432 95.8421 60.632 96.5301 60.632ZM106.257 62.12C105.969 62.12 105.729 62.04 105.537 61.88C105.361 61.704 105.273 61.464 105.273 61.16V45.92C105.273 45.616 105.361 45.384 105.537 45.224C105.729 45.048 105.969 44.96 106.257 44.96C106.529 44.96 106.753 45.048 106.929 45.224C107.121 45.384 107.217 45.616 107.217 45.92V61.16C107.217 61.464 107.121 61.704 106.929 61.88C106.753 62.04 106.529 62.12 106.257 62.12ZM125.707 60.872C125.771 61 125.803 61.136 125.803 61.28C125.803 61.52 125.707 61.72 125.515 61.88C125.339 62.04 125.123 62.12 124.867 62.12C124.467 62.12 124.187 61.928 124.027 61.544L122.323 57.656H113.275L111.547 61.544C111.387 61.928 111.107 62.12 110.707 62.12C110.451 62.12 110.227 62.04 110.035 61.88C109.843 61.704 109.747 61.496 109.747 61.256C109.747 61.128 109.779 61 109.843 60.872L116.707 45.608C116.803 45.384 116.947 45.216 117.139 45.104C117.331 44.992 117.539 44.936 117.763 44.936C118.003 44.936 118.219 45 118.411 45.128C118.603 45.24 118.747 45.4 118.843 45.608L125.707 60.872ZM113.995 56.024H121.603L117.787 47.408L113.995 56.024ZM134.168 50.024C136.968 50.024 138.368 51.568 138.368 54.656V61.16C138.368 61.464 138.28 61.704 138.104 61.88C137.944 62.04 137.712 62.12 137.408 62.12C137.104 62.12 136.864 62.04 136.688 61.88C136.512 61.704 136.424 61.464 136.424 61.16V54.776C136.424 53.688 136.208 52.896 135.776 52.4C135.36 51.904 134.688 51.656 133.76 51.656C132.688 51.656 131.832 51.984 131.192 52.64C130.552 53.296 130.232 54.184 130.232 55.304V61.16C130.232 61.464 130.144 61.704 129.968 61.88C129.808 62.04 129.576 62.12 129.272 62.12C128.968 62.12 128.728 62.04 128.552 61.88C128.376 61.704 128.288 61.464 128.288 61.16V51.032C128.288 50.744 128.376 50.512 128.552 50.336C128.728 50.16 128.968 50.072 129.272 50.072C129.56 50.072 129.784 50.16 129.944 50.336C130.12 50.512 130.208 50.736 130.208 51.008V52.232C130.592 51.512 131.128 50.968 131.816 50.6C132.504 50.216 133.288 50.024 134.168 50.024ZM151.313 44.96C151.617 44.96 151.857 45.048 152.033 45.224C152.209 45.4 152.297 45.624 152.297 45.896V61.16C152.297 61.448 152.209 61.68 152.033 61.856C151.857 62.032 151.617 62.12 151.313 62.12C151.009 62.12 150.769 62.032 150.593 61.856C150.433 61.68 150.353 61.448 150.353 61.16V59.864C150.001 60.6 149.481 61.168 148.793 61.568C148.121 61.968 147.329 62.168 146.417 62.168C145.393 62.168 144.489 61.912 143.705 61.4C142.921 60.888 142.313 60.176 141.881 59.264C141.449 58.336 141.233 57.264 141.233 56.048C141.233 54.848 141.449 53.792 141.881 52.88C142.313 51.968 142.921 51.264 143.705 50.768C144.489 50.272 145.393 50.024 146.417 50.024C147.329 50.024 148.121 50.224 148.793 50.624C149.481 51.024 150.001 51.592 150.353 52.328V45.896C150.353 45.608 150.433 45.384 150.593 45.224C150.769 45.048 151.009 44.96 151.313 44.96ZM146.801 60.56C147.937 60.56 148.809 60.176 149.417 59.408C150.041 58.624 150.353 57.52 150.353 56.096C150.353 54.672 150.041 53.576 149.417 52.808C148.809 52.04 147.937 51.656 146.801 51.656C145.665 51.656 144.777 52.04 144.137 52.808C143.513 53.576 143.201 54.656 143.201 56.048C143.201 57.472 143.513 58.584 144.137 59.384C144.777 60.168 145.665 60.56 146.801 60.56ZM164.946 59.288C165.122 59.288 165.274 59.36 165.402 59.504C165.53 59.648 165.594 59.832 165.594 60.056C165.594 60.456 165.314 60.824 164.754 61.16C164.178 61.496 163.57 61.752 162.93 61.928C162.29 62.088 161.666 62.168 161.058 62.168C159.25 62.168 157.818 61.632 156.762 60.56C155.722 59.488 155.202 58.008 155.202 56.12C155.202 54.92 155.434 53.864 155.898 52.952C156.362 52.024 157.01 51.304 157.842 50.792C158.69 50.28 159.65 50.024 160.722 50.024C162.242 50.024 163.45 50.52 164.346 51.512C165.242 52.504 165.69 53.848 165.69 55.544C165.69 55.864 165.626 56.096 165.498 56.24C165.37 56.384 165.162 56.456 164.874 56.456H157.146C157.29 59.208 158.594 60.584 161.058 60.584C161.682 60.584 162.218 60.504 162.666 60.344C163.114 60.168 163.594 59.936 164.106 59.648C164.522 59.408 164.802 59.288 164.946 59.288ZM160.746 51.536C159.722 51.536 158.898 51.856 158.274 52.496C157.666 53.136 157.306 54.04 157.194 55.208H163.986C163.954 54.024 163.658 53.12 163.098 52.496C162.538 51.856 161.754 51.536 160.746 51.536ZM174.338 50.072C175.01 50.024 175.346 50.296 175.346 50.888C175.346 51.144 175.274 51.352 175.13 51.512C174.986 51.656 174.738 51.744 174.386 51.776L173.666 51.848C172.594 51.944 171.794 52.328 171.266 53C170.754 53.656 170.498 54.432 170.498 55.328V61.16C170.498 61.48 170.41 61.72 170.234 61.88C170.058 62.04 169.826 62.12 169.538 62.12C169.25 62.12 169.01 62.04 168.818 61.88C168.642 61.704 168.554 61.464 168.554 61.16V51.032C168.554 50.728 168.65 50.496 168.842 50.336C169.034 50.16 169.266 50.072 169.538 50.072C169.794 50.072 170.01 50.16 170.186 50.336C170.362 50.496 170.45 50.72 170.45 51.008V52.352C170.786 51.648 171.258 51.112 171.866 50.744C172.49 50.376 173.202 50.16 174.002 50.096L174.338 50.072ZM190.023 50.024C192.615 50.024 193.911 51.568 193.911 54.656V61.16C193.911 61.464 193.823 61.704 193.647 61.88C193.471 62.04 193.239 62.12 192.951 62.12C192.663 62.12 192.423 62.04 192.231 61.88C192.055 61.704 191.967 61.464 191.967 61.16V54.704C191.967 53.632 191.775 52.856 191.391 52.376C191.007 51.896 190.407 51.656 189.591 51.656C188.615 51.656 187.847 51.984 187.287 52.64C186.727 53.296 186.447 54.184 186.447 55.304V61.16C186.447 61.464 186.351 61.704 186.159 61.88C185.983 62.04 185.751 62.12 185.463 62.12C185.175 62.12 184.943 62.04 184.767 61.88C184.591 61.704 184.503 61.464 184.503 61.16V54.704C184.503 53.632 184.311 52.856 183.927 52.376C183.543 51.896 182.935 51.656 182.103 51.656C181.143 51.656 180.375 51.984 179.799 52.64C179.239 53.296 178.959 54.184 178.959 55.304V61.16C178.959 61.464 178.871 61.704 178.695 61.88C178.519 62.04 178.287 62.12 177.999 62.12C177.711 62.12 177.471 62.04 177.279 61.88C177.103 61.704 177.015 61.464 177.015 61.16V51.032C177.015 50.744 177.103 50.512 177.279 50.336C177.471 50.16 177.711 50.072 177.999 50.072C178.271 50.072 178.495 50.16 178.671 50.336C178.847 50.496 178.935 50.72 178.935 51.008V52.16C179.287 51.472 179.775 50.944 180.399 50.576C181.023 50.208 181.743 50.024 182.559 50.024C184.383 50.024 185.575 50.792 186.135 52.328C186.471 51.624 186.983 51.064 187.671 50.648C188.359 50.232 189.143 50.024 190.023 50.024ZM202.228 50.024C205.156 50.024 206.62 51.56 206.62 54.632V61.16C206.62 61.448 206.532 61.68 206.356 61.856C206.196 62.032 205.972 62.12 205.684 62.12C205.396 62.12 205.164 62.032 204.988 61.856C204.812 61.68 204.724 61.448 204.724 61.16V60.008C204.42 60.696 203.956 61.232 203.332 61.616C202.708 61.984 201.988 62.168 201.172 62.168C200.42 62.168 199.724 62.016 199.084 61.712C198.46 61.408 197.964 60.984 197.596 60.44C197.228 59.896 197.044 59.296 197.044 58.64C197.044 57.76 197.268 57.08 197.716 56.6C198.164 56.104 198.9 55.752 199.924 55.544C200.948 55.32 202.372 55.208 204.196 55.208H204.724V54.416C204.724 53.456 204.524 52.752 204.124 52.304C203.74 51.856 203.108 51.632 202.228 51.632C201.14 51.632 200.036 51.928 198.916 52.52C198.484 52.792 198.18 52.928 198.004 52.928C197.812 52.928 197.652 52.856 197.524 52.712C197.396 52.568 197.332 52.384 197.332 52.16C197.332 51.936 197.396 51.744 197.524 51.584C197.668 51.408 197.892 51.232 198.196 51.056C198.756 50.736 199.388 50.488 200.092 50.312C200.812 50.12 201.524 50.024 202.228 50.024ZM201.436 60.632C202.396 60.632 203.18 60.312 203.788 59.672C204.412 59.016 204.724 58.176 204.724 57.152V56.456H204.292C202.884 56.456 201.812 56.52 201.076 56.648C200.34 56.76 199.812 56.96 199.492 57.248C199.188 57.52 199.036 57.928 199.036 58.472C199.036 59.096 199.26 59.616 199.708 60.032C200.172 60.432 200.748 60.632 201.436 60.632ZM214.955 50.024C217.883 50.024 219.347 51.56 219.347 54.632V61.16C219.347 61.448 219.259 61.68 219.083 61.856C218.923 62.032 218.699 62.12 218.411 62.12C218.123 62.12 217.891 62.032 217.715 61.856C217.539 61.68 217.451 61.448 217.451 61.16V60.008C217.147 60.696 216.683 61.232 216.059 61.616C215.435 61.984 214.715 62.168 213.899 62.168C213.147 62.168 212.451 62.016 211.811 61.712C211.187 61.408 210.691 60.984 210.323 60.44C209.955 59.896 209.771 59.296 209.771 58.64C209.771 57.76 209.995 57.08 210.443 56.6C210.891 56.104 211.627 55.752 212.651 55.544C213.675 55.32 215.099 55.208 216.923 55.208H217.451V54.416C217.451 53.456 217.251 52.752 216.851 52.304C216.467 51.856 215.835 51.632 214.955 51.632C213.867 51.632 212.763 51.928 211.643 52.52C211.211 52.792 210.907 52.928 210.731 52.928C210.539 52.928 210.379 52.856 210.251 52.712C210.123 52.568 210.059 52.384 210.059 52.16C210.059 51.936 210.123 51.744 210.251 51.584C210.395 51.408 210.619 51.232 210.923 51.056C211.483 50.736 212.115 50.488 212.819 50.312C213.539 50.12 214.251 50.024 214.955 50.024ZM214.163 60.632C215.123 60.632 215.907 60.312 216.515 59.672C217.139 59.016 217.451 58.176 217.451 57.152V56.456H217.019C215.611 56.456 214.539 56.52 213.803 56.648C213.067 56.76 212.539 56.96 212.219 57.248C211.915 57.52 211.763 57.928 211.763 58.472C211.763 59.096 211.987 59.616 212.435 60.032C212.899 60.432 213.475 60.632 214.163 60.632ZM223.889 62.12C223.601 62.12 223.361 62.04 223.169 61.88C222.993 61.704 222.905 61.464 222.905 61.16V45.92C222.905 45.616 222.993 45.384 223.169 45.224C223.361 45.048 223.601 44.96 223.889 44.96C224.161 44.96 224.385 45.048 224.561 45.224C224.753 45.384 224.849 45.616 224.849 45.92V61.16C224.849 61.464 224.753 61.704 224.561 61.88C224.385 62.04 224.161 62.12 223.889 62.12Z" fill="#284B63"/>
<path d="M162.847 117.708L159.135 113.996C157.597 112.458 155.104 112.458 153.566 113.996L152.638 114.924L134.076 96.3622L135.004 95.4341C136.542 93.8964 136.542 91.4033 135.004 89.8657L131.292 86.1533C129.754 84.6156 127.261 84.6156 125.724 86.1533L105.306 106.571C103.768 108.109 103.768 110.602 105.306 112.139L109.018 115.852C110.556 117.389 113.049 117.389 114.587 115.852L115.515 114.924L122.011 121.42L108.716 134.716L107.788 133.788C105.737 131.737 102.413 131.737 100.363 133.788L81.5377 152.613C79.4874 154.663 79.4874 157.987 81.5377 160.038L88.9624 167.462C91.0127 169.513 94.3367 169.513 96.387 167.462L115.212 148.637C117.263 146.587 117.263 143.263 115.212 141.212L114.284 140.284L127.58 126.989L134.076 133.485L133.148 134.413C131.611 135.951 131.611 138.444 133.148 139.982L136.861 143.694C138.398 145.232 140.891 145.232 142.429 143.694L162.847 123.276C164.384 121.739 164.384 119.246 162.847 117.708V117.708Z" fill="#284B63"/>
</svg>
