<?xml version="1.0" standalone="no"?>
<!DOCTYPE svg PUBLIC "-//W3C//DTD SVG 20010904//EN"
 "http://www.w3.org/TR/2001/REC-SVG-20010904/DTD/svg10.dtd">
<svg version="1.0" xmlns="http://www.w3.org/2000/svg"
 width="512.000000pt" height="512.000000pt" viewBox="0 0 512.000000 512.000000"
 preserveAspectRatio="xMidYMid meet">
<metadata>
Created by potrace 1.11, written by Peter Selinger 2001-2013
</metadata>
<g transform="translate(0.000000,512.000000) scale(0.100000,-0.100000)"
fill="#000000" stroke="none">
<path d="M0 2560 l0 -2560 2560 0 2560 0 0 2560 0 2560 -2560 0 -2560 0 0
-2560z m3035 2366 c34 -16 87 -61 166 -142 134 -137 154 -163 169 -227 19 -71
0 -132 -61 -200 l-49 -56 525 -527 525 -527 44 41 c65 60 102 76 172 76 81 -1
110 -19 263 -168 141 -138 171 -187 171 -276 0 -33 -8 -71 -19 -95 -13 -27
-218 -238 -642 -661 -678 -675 -629 -634 -739 -634 -84 0 -108 16 -257 165
-84 83 -149 157 -158 178 -20 48 -19 149 1 189 9 16 34 50 56 74 l40 44 -181
182 -182 182 -377 -377 -377 -377 42 -42 c91 -93 117 -222 71 -345 -20 -55
-55 -92 -597 -634 -542 -541 -579 -577 -634 -597 -38 -15 -80 -22 -125 -22
-118 0 -144 18 -421 293 -279 278 -301 309 -301 429 0 44 7 87 22 125 20 55
55 92 597 634 542 541 579 577 634 597 123 46 252 20 345 -71 l42 -42 377 377
377 377 -182 182 -182 182 -44 -41 c-24 -22 -58 -47 -74 -56 -39 -20 -141 -21
-188 -1 -21 8 -98 77 -184 163 -145 145 -148 148 -155 201 -4 29 -4 78 0 109
l7 57 621 624 c423 424 635 629 662 642 57 27 138 25 200 -5z"/>
</g>
</svg>
